<?xml version="1.0" encoding="iso-8859-1"?>
<!-- Generator: Adobe Illustrator 19.0.0, SVG Export Plug-In . SVG Version: 6.00 Build 0)  -->
<svg version="1.1" id="Capa_1" xmlns="http://www.w3.org/2000/svg" xmlns:xlink="http://www.w3.org/1999/xlink" x="0px" y="0px"
	 viewBox="0 0 512 512" style="enable-background:new 0 0 512 512;" xml:space="preserve">
<path style="fill:#6C7A88;" d="M161.716,201.75c-0.469-32.311-26.791-58.364-59.214-58.364c-32.522,0-58.911,26.212-59.221,58.66
	C18.32,209.014,0,231.905,0,259.091c0,32.714,26.521,59.235,59.235,59.235c12.653,0,24.367-3.982,33.991-10.74h19.59
	c9.623,6.758,21.338,10.74,33.99,10.74c32.714,0,59.235-26.521,59.235-59.235C206.041,231.526,187.213,208.362,161.716,201.75z"/>
<path style="fill:#35404A;" d="M202.894,240.02L202.894,240.02c-6.37-18.736-21.854-33.259-41.178-38.269
	c-0.469-32.311-26.791-58.364-59.214-58.364c0,15.491,6.896,28.363,17.833,37.286c6.279,5.122,10.352,12.87,10.477,21.526l0,0
	c0.202,13.913,9.676,25.975,23.145,29.467c12.469,3.235,21.178,14.511,21.178,27.425c0,9.597-6.727,17.879-16.119,19.854
	c-3.939,0.828-8.024,1.264-12.212,1.265c-24.162,0-25.835-10.718-44.519-10.74c-5.407-0.006-10.71,1.411-15.493,3.934
	c-26.038,13.734-57.415,5.911-74.486-16.24c-4.089-5.304-12.531-2.278-12.256,4.413c0.008,0.207,0.019,0.415,0.029,0.623
	c1.575,30.611,26.757,55.208,57.396,56.1c13.324,0.387,25.682-3.644,35.749-10.713l-19.868,26.19
	c-5.865,7.432-0.572,18.353,8.896,18.353h41.537c9.467,0,14.76-10.921,8.896-18.353l-19.868-26.19
	c10.546,7.407,23.606,11.477,37.657,10.628c19.724-1.192,36.975-12.208,46.831-28.219h0.04
	C206.23,275.497,208.691,257.408,202.894,240.02z"/>
</svg>
