<?xml version="1.0" encoding="iso-8859-1"?>
<!-- Generator: Adobe Illustrator 19.0.0, SVG Export Plug-In . SVG Version: 6.00 Build 0)  -->
<svg version="1.1" id="Capa_1" xmlns="http://www.w3.org/2000/svg" xmlns:xlink="http://www.w3.org/1999/xlink" x="0px" y="0px"
	 viewBox="0 0 512 512" style="enable-background:new 0 0 512 512;" xml:space="preserve">
<path style="fill:#FF5368;" d="M238.959,8.264l-73.068,92.629c-6.224,7.89-6.224,19.023,0,26.913l73.068,92.629
	c8.692,11.019,25.39,11.019,34.081,0l73.068-92.629c6.224-7.89,6.224-19.023,0-26.913L273.041,8.264
	C264.35-2.755,247.65-2.755,238.959,8.264z"/>
<path style="fill:#C5324F;" d="M273.041,8.264c-8.692-11.019-25.39-11.019-34.081,0l-2.64,3.347l65.943,83.598
	c8.854,11.225,8.854,27.057,0,38.28l-65.943,83.598l2.64,3.348c8.692,11.019,25.39,11.019,34.081,0l73.068-92.63
	c6.224-7.89,6.224-19.023,0-26.913L273.041,8.264z"/>
</svg>
