<?xml version="1.0" encoding="iso-8859-1"?>
<!-- Generator: Adobe Illustrator 19.0.0, SVG Export Plug-In . SVG Version: 6.00 Build 0)  -->
<svg version="1.1" id="Capa_1" xmlns="http://www.w3.org/2000/svg" xmlns:xlink="http://www.w3.org/1999/xlink" x="0px" y="0px"
	 viewBox="0 0 512 512" style="enable-background:new 0 0 512 512;" xml:space="preserve">

<path style="fill:#FF5368;" d="M339.017,354.927c-23.492-26.261-62.998-26.813-87.163-1.653
	c-24.164-25.159-63.67-24.608-87.163,1.653c-22.377,25.015-20.658,64.398,2.558,88.57l52.493,54.654
	c17.735,18.465,46.488,18.465,64.222,0l52.493-54.654C359.674,419.325,361.394,379.942,339.017,354.927z"/>
<path style="fill:#C5324F;" d="M339.017,354.927c-5.303-5.928-11.427-10.534-18-13.842c12.301,24.221,7.959,55.187-11.51,75.459
	l-52.493,54.654c-15.752,16.4-40.19,18.221-57.886,5.487l20.617,21.466c17.735,18.465,46.488,18.465,64.222,0l52.493-54.654
	C359.674,419.325,361.394,379.942,339.017,354.927z"/>
</svg>
