<?xml version="1.0" encoding="iso-8859-1"?>
<!-- Generator: Adobe Illustrator 19.0.0, SVG Export Plug-In . SVG Version: 6.00 Build 0)  -->
<svg version="1.1" id="Capa_1" xmlns="http://www.w3.org/2000/svg" xmlns:xlink="http://www.w3.org/1999/xlink" x="0px" y="0px"
	 viewBox="0 0 512 512" style="enable-background:new 0 0 512 512;" xml:space="preserve">
<path style="fill:#6C7A88;" d="M321.819,298.633c23.492,25.956,62.998,26.5,87.163,1.634c24.164,24.866,63.67,24.322,87.163-1.634
	c22.377-24.724,20.658-63.649-2.558-87.54l-52.493-54.019c-17.735-18.25-46.488-18.25-64.223,0l-52.493,54.019
	C301.162,234.984,299.443,273.909,321.819,298.633z"/>
<path style="fill:#35404A;" d="M493.586,211.094l-52.493-54.02c-7.775-8-17.667-12.492-27.819-13.478
	c-5.505,11.366-3.656,25.435,5.655,35.017l52.493,54.02c0.36,0.369,0.709,0.746,1.048,1.128
	c16.219,18.281,2.144,47.273-22.286,46.615c-8.968-0.242-17.893-2.523-26.065-6.846c-9.399-4.973-20.753-5.069-30.14-0.071
	c-23.412,12.462-53.072,8.149-72.16-12.941c-0.062-0.068-0.123-0.136-0.183-0.204c-5.686-6.34-16.192-1.506-14.824,6.899
	c1.858,11.42,6.818,22.371,15.008,31.421c20.611,22.772,53.546,25.98,77.634,9.632l-20.136,25.512
	c-5.865,7.432-0.572,18.353,8.896,18.353h41.537c9.467,0,14.76-10.921,8.896-18.353l-20.137-25.514
	c24.099,16.353,57.04,13.114,77.629-9.624C518.41,274.042,516.886,235.071,493.586,211.094z"/>
</svg>
